<svg aria-hidden="true" style="position: absolute; width: 0; height: 0; overflow: hidden;" version="1.1" xmlns="http://www.w3.org/2000/svg" xmlns:xlink="http://www.w3.org/1999/xlink">
<defs>
<symbol id="icon-spoon" viewBox="0 0 67 32">
<path fill="#fd0b7d" style="fill: var(--color1, #fd0b7d)" d="M18.58 17.658l9.819-4.895-24.339-12.134c-5.413 2.698-5.413 7.083 0 9.782l14.52 7.248zM42.121 14.518c5.291 1.237 12.768 0.363 18.285-2.387 6.644-3.312 7.911-8.043 2.828-10.577-5.1-2.534-14.607-1.903-21.234 1.41-5.517 2.75-7.251 6.478-4.788 9.116-7.72 3.84-33.881 16.882-33.881 16.882l4.909 2.448 23.871-11.901 23.871 11.901 4.909-2.448-23.871-11.901 5.1-2.543z"></path>
</symbol>
<symbol id="icon-arrow" viewBox="0 0 7 32">
<path fill="#fff" style="fill: var(--color2, #fff)" d="M4 28h3.2l-3.6 4-3.6-4h3.2v-28h0.8v28z"></path>
</symbol>
<symbol id="icon-burger" viewBox="0 0 73 32">
<path fill="#fd0b7d" style="fill: var(--color1, #fd0b7d)" d="M72.035 17.297c0 1.592-2.481 2.883-5.541 2.883h-60.952c-3.060 0-5.541-1.291-5.541-2.883s2.481-2.883 5.541-2.883h60.952c3.060 0 5.541 1.291 5.541 2.883zM13.853 23.063h-8.312c0 4.777 7.442 8.649 16.623 8.649h27.706c9.181 0 16.623-3.872 16.623-8.649h-52.641zM11.082 11.532h-5.541v-5.766c0-3.184 4.962-5.766 11.082-5.766h38.788c6.121 0 11.082 2.581 11.082 5.766v5.766h-55.411zM55.411 7.207c0 0.796 1.241 1.441 2.771 1.441s2.771-0.645 2.771-1.441-1.241-1.441-2.771-1.441c-1.53 0-2.771 0.645-2.771 1.441zM44.329 4.324c0 0.796 1.241 1.441 2.771 1.441s2.771-0.645 2.771-1.441-1.241-1.441-2.771-1.441c-1.53 0-2.771 0.645-2.771 1.441zM33.247 7.207c0 0.796 1.241 1.441 2.771 1.441s2.771-0.645 2.771-1.441-1.241-1.441-2.771-1.441c-1.53 0-2.771 0.645-2.771 1.441zM22.164 4.324c0 0.796 1.241 1.441 2.771 1.441s2.771-0.645 2.771-1.441-1.241-1.441-2.771-1.441c-1.53 0-2.771 0.645-2.771 1.441zM11.082 7.207c0 0.796 1.241 1.441 2.771 1.441s2.771-0.645 2.771-1.441c0-0.796-1.241-1.441-2.771-1.441s-2.771 0.645-2.771 1.441z"></path>
</symbol>
<symbol id="icon-quot" viewBox="0 0 34 32">
<path fill="#d6d6d6" style="fill: var(--color3, #d6d6d6)" d="M34.415 5.929c-5.096 2.5-7.644 5.437-7.644 8.813 2.172 0.25 3.968 1.135 5.388 2.656s2.13 3.281 2.13 5.281c0 2.125-0.689 3.917-2.068 5.375s-3.112 2.188-5.2 2.188c-2.339 0-4.365-0.948-6.078-2.844s-2.569-4.198-2.569-6.906c0-8.125 4.553-14.479 13.659-19.063l2.381 4.5zM16.066 5.929c-5.138 2.5-7.707 5.437-7.707 8.813 2.214 0.25 4.031 1.135 5.451 2.656s2.13 3.281 2.13 5.281c0 2.125-0.7 3.917-2.099 5.375s-3.143 2.188-5.232 2.188c-2.339 0-4.354-0.948-6.046-2.844s-2.538-4.198-2.538-6.906c0-8.125 4.532-14.479 13.596-19.063l2.444 4.5z"></path>
</symbol>
<symbol id="icon-chart" viewBox="0 0 37 32">
<path fill="#fd0b7d" style="fill: var(--color1, #fd0b7d)" d="M0 32v-32h9.546v32h-9.546zM13.126 32v-26.074h9.546v26.074h-9.546zM26.251 32v-21.333h9.546v21.333h-9.546z"></path>
</symbol>
<symbol id="icon-close" viewBox="0 0 32 32"><path d="M23.733 10.304l-1.504-1.504-5.963 5.963-5.963-5.963-1.504 1.504 5.963 5.963-5.963 5.963 1.504 1.504 5.963-5.963 5.963 5.963 1.504-1.504-5.963-5.963 5.963-5.963z"></path></symbol><symbol id="icon-menu" viewBox="0 0 32 32"><path fill="#fff" style="fill: var(--color1, #fff)" d="M6.4 11.733v-2.133h19.2v2.133h-19.2zM6.4 17.067h19.2v-2.133h-19.2v2.133zM6.4 22.4h19.2v-2.133h-19.2v2.133z"></path></symbol>
</defs>
</svg>


